<svg width="106" height="106" viewBox="0 0 106 106" fill="none" xmlns="http://www.w3.org/2000/svg">
<g clip-path="url(#clip0_530_10420)">
<path d="M-6.10352e-05 37.882C-6.10352e-05 20.0243 -6.10352e-05 11.0954 5.54763 5.5477C11.0953 0 20.0242 0 37.882 0H68.1179C85.9757 0 94.9045 0 100.452 5.5477C106 11.0954 106 20.0243 106 37.882V68.118C106 85.9757 106 94.9046 100.452 100.452C94.9045 106 85.9757 106 68.1179 106H37.882C20.0242 106 11.0953 106 5.54763 100.452C-6.10352e-05 94.9046 -6.10352e-05 85.9757 -6.10352e-05 68.118V37.882Z" fill="url(#paint0_linear_530_10420)"/>
<g clip-path="url(#clip1_530_10420)">
<path d="M91.4641 82.3118C86.1591 80.3658 84.7124 76.5077 87.0057 68.9258C89.2991 61.3439 78.6606 53.3994 78.6606 53.3994H52.9565H27.2521C27.2521 53.3994 16.6137 61.3439 18.907 68.9258C21.2004 76.5077 19.7537 80.3658 14.4486 82.3118C9.14359 84.2579 -3.3953 96.7259 9.78669 114.922H52.9565H96.1261C109.308 96.7262 96.7692 84.2581 91.4641 82.3118Z" fill="#0C253D"/>
<path d="M78.7927 37.5093C78.7296 37.3091 78.6693 37.1079 78.602 36.91C75.3425 26.3053 66.9721 15.4688 57.8142 15.4688C54.6621 15.4688 52.9533 18.5606 52.9533 18.5606C52.9533 18.5606 51.2446 15.4688 48.0925 15.4688C38.9342 15.4688 30.5636 26.3061 27.3046 36.9111C27.2373 37.1087 27.177 37.3096 27.1142 37.5093L28.2793 42.204L25.8633 48.4412V53.3995H80.0439V48.4412L77.573 42.5109L78.7927 37.5093Z" fill="#0C253D"/>
<path d="M48.0925 15.4688C38.9342 15.4688 30.5636 26.3061 27.3046 36.9111C27.2373 37.1087 27.177 37.3096 27.1142 37.5093L28.2793 42.204L25.8633 48.4412V53.3995H52.8979V36.7209C50.7205 30.6893 50.3822 21.943 52.9533 18.5606C52.9533 18.5606 51.2446 15.4688 48.0925 15.4688Z" fill="#0C253D"/>
<path d="M97.6785 106.274C91.6461 100.948 65.759 96.6291 65.0935 96.5186L52.9558 96.5211L40.8181 96.5186C40.1523 96.6288 14.2655 100.948 8.23312 106.274C6.08147 108.174 3.55159 113.833 1.17578 120.368C9.59971 132.426 22.126 141.405 36.731 145.279H69.1807C83.7857 141.405 96.3122 132.426 104.736 120.368C102.36 113.833 99.8302 108.174 97.6785 106.274Z" fill="#D3DCFB"/>
<path d="M52.9601 83.8721C35.7971 83.8721 25.1881 102.323 21.9483 118.54C21.3733 121.418 23.1377 124.247 25.9749 124.999L26.4763 125.132C28.1938 125.587 29.59 126.837 30.2326 128.493L36.7435 145.278C39.193 145.928 41.7007 146.432 44.2576 146.785L52.9549 142.347L61.7349 146.775C64.2666 146.423 66.7504 145.922 69.1767 145.278L75.6876 128.493C76.3301 126.837 77.7264 125.587 79.4439 125.132L79.9453 124.999C82.7825 124.247 84.5469 121.419 83.9718 118.54C80.7321 102.323 70.1231 83.8721 52.9601 83.8721Z" fill="#E9EFFF"/>
<path d="M38.9727 103.207L43.6429 125.89C43.9948 127.599 44.1721 129.34 44.1721 131.085V146.774C47.0426 147.173 49.9734 147.385 52.9539 147.385C55.9344 147.385 58.8652 147.173 61.7354 146.774V131.085C61.7354 129.34 61.9127 127.599 62.2646 125.89L66.9348 103.207H38.9727Z" fill="#8AE1FF"/>
<path d="M54.8921 147.353V103.207H51.0273V147.353C51.6692 147.373 52.313 147.385 52.9597 147.385C53.6064 147.385 54.2503 147.373 54.8921 147.353Z" fill="#5C9743"/>
<path d="M40.8203 65.3896V96.5204C40.8203 101.253 46.2544 105.089 52.958 105.089C59.6616 105.089 65.0958 101.253 65.0958 96.5204V65.3896H40.8203Z" fill="#EAAE9F"/>
<path d="M33.617 56.5797C33.617 56.5797 30.9413 50.065 26.1717 51.5774C21.402 53.0898 26.2871 67.2076 35.5948 68.097L33.617 56.5797Z" fill="#CC8A77"/>
<path d="M72.2941 56.5797C72.2941 56.5797 74.9699 50.065 79.7395 51.5774C84.5092 53.0898 79.6241 67.2076 70.3164 68.097L72.2941 56.5797Z" fill="#F1B9AD"/>
<g filter="url(#filter0_ii_530_10420)">
<path d="M52.9009 36.7197C52.9009 36.7197 47.8277 52.2927 30.3993 52.3236C30.3919 52.6406 30.3867 52.9585 30.3867 53.279C30.3867 69.8988 40.4916 89.3902 52.9562 89.3902C65.4209 89.3902 75.5258 69.8986 75.5258 53.279C75.5258 52.9585 75.5206 52.6406 75.5131 52.3236C58.0851 52.2927 52.9009 36.7197 52.9009 36.7197Z" fill="url(#paint1_linear_530_10420)"/>
</g>
<path opacity="0.2" d="M53.707 67.7422L53.6282 67.8052C52.9116 68.3786 51.886 68.3519 51.2 67.7422" stroke="#A6644C" stroke-width="0.791686"/>
<path d="M40.8196 92.6641L52.9573 105.089C52.9573 105.089 48.2351 113.629 45.1793 113.629C43.3722 113.629 40.7869 107.895 38.9761 103.209C37.59 99.623 38.297 95.5657 40.8196 92.6641Z" fill="#B8F0FF"/>
<path d="M65.0948 92.6641L52.957 105.089C52.957 105.089 57.6793 113.629 60.735 113.629C62.5422 113.629 65.1275 107.895 66.9383 103.209C68.3244 99.623 67.6174 95.5657 65.0948 92.6641Z" fill="#B8F0FF"/>
<path d="M47.6443 77.5281H58.2681C59.3273 76.5949 60.1381 75.3873 60.5895 74.0161C60.9976 72.7765 60.0564 71.5029 58.7514 71.5029H47.161C45.856 71.5029 44.9148 72.7765 45.3229 74.0161C45.7743 75.3873 46.5851 76.5949 47.6443 77.5281Z" fill="#8D3E5B"/>
<path d="M58.268 77.5287C56.8527 78.7781 54.9922 79.5379 52.9563 79.5379C50.9203 79.5379 49.0596 78.7783 47.6445 77.5287C49.0616 76.2793 50.9203 75.5195 52.9563 75.5195C54.9922 75.5195 56.8509 76.2793 58.268 77.5287Z" fill="#C64677"/>
<path d="M67.1249 59.607C67.1359 58.7065 66.7716 57.8024 66.0319 57.1493C64.8274 56.0857 62.9813 56.0857 61.7768 57.1493C61.0371 57.8024 60.673 58.7065 60.6838 59.607C60.698 60.7762 62.1342 61.3374 62.961 60.5106C63.4819 59.9896 64.3265 59.9896 64.8475 60.5106C65.6745 61.3376 67.1107 60.7765 67.1249 59.607Z" fill="#0C253D"/>
<path d="M38.7854 59.607C38.7743 58.7065 39.1386 57.8024 39.8784 57.1493C41.0829 56.0857 42.929 56.0857 44.1335 57.1493C44.8732 57.8024 45.2373 58.7065 45.2264 59.607C45.2123 60.7762 43.7761 61.3374 42.9493 60.5106C42.4283 59.9896 41.5838 59.9896 41.0628 60.5106C40.2357 61.3376 38.7996 60.7765 38.7854 59.607Z" fill="#0C253D"/>
<path d="M27.1142 37.5079C26.3147 40.0481 25.8746 42.7478 25.8646 45.5498C25.8643 45.5828 25.8633 45.6165 25.8633 45.6495V48.4404C28.4911 46.1622 37.2049 39.8369 52.9536 39.8369C68.7023 39.8369 77.4161 46.1622 80.0439 48.4404V45.6495C80.0439 42.8117 79.602 40.0785 78.793 37.5079C75.1598 34.7737 66.7591 29.9121 52.9536 29.9121C39.1478 29.9121 30.7473 34.7737 27.1142 37.5079Z" fill="#44ABF9"/>
<path d="M25.8633 48.4403C27.5942 46.9397 31.9665 43.684 39.2488 41.636C38.614 39.9955 38.2623 38.2154 38.2623 36.3536C38.2623 34.7587 38.5212 33.2241 38.9935 31.7852C33.2159 33.4483 29.3004 35.8628 27.1142 37.5081C26.3147 40.0483 25.8746 42.748 25.8646 45.5499C25.8643 45.5829 25.8633 45.6167 25.8633 45.6497V48.4403Z" fill="#44ABF9"/>
<path d="M52.9506 46.661C58.6425 46.661 63.2567 42.0468 63.2567 36.3549C63.2567 30.663 58.6425 26.0488 52.9506 26.0488C47.2587 26.0488 42.6445 30.663 42.6445 36.3549C42.6445 42.0468 47.2587 46.661 52.9506 46.661Z" fill="#8AE1FF"/>
<path d="M52.9551 44.4688C57.4371 44.4688 61.0704 40.8355 61.0704 36.3536C61.0704 31.8716 57.4371 28.2383 52.9551 28.2383C48.4732 28.2383 44.8398 31.8716 44.8398 36.3536C44.8398 40.8355 48.4732 44.4688 52.9551 44.4688Z" fill="#FFC839"/>
</g>
</g>
<defs>
<filter id="filter0_ii_530_10420" x="9.08317" y="19.6769" width="85.6158" height="91.0168" filterUnits="userSpaceOnUse" color-interpolation-filters="sRGB">
<feFlood flood-opacity="0" result="BackgroundImageFix"/>
<feBlend mode="normal" in="SourceGraphic" in2="BackgroundImageFix" result="shape"/>
<feColorMatrix in="SourceAlpha" type="matrix" values="0 0 0 0 0 0 0 0 0 0 0 0 0 0 0 0 0 0 127 0" result="hardAlpha"/>
<feOffset dx="19.1732" dy="-17.0428"/>
<feGaussianBlur stdDeviation="17.0428"/>
<feComposite in2="hardAlpha" operator="arithmetic" k2="-1" k3="1"/>
<feColorMatrix type="matrix" values="0 0 0 0 0.372399 0 0 0 0 0.033121 0 0 0 0 0.033121 0 0 0 0.15 0"/>
<feBlend mode="normal" in2="shape" result="effect1_innerShadow_530_10420"/>
<feColorMatrix in="SourceAlpha" type="matrix" values="0 0 0 0 0 0 0 0 0 0 0 0 0 0 0 0 0 0 127 0" result="hardAlpha"/>
<feOffset dx="-21.3036" dy="21.3036"/>
<feGaussianBlur stdDeviation="14.9125"/>
<feComposite in2="hardAlpha" operator="arithmetic" k2="-1" k3="1"/>
<feColorMatrix type="matrix" values="0 0 0 0 1 0 0 0 0 0.871946 0 0 0 0 0.871946 0 0 0 0.5 0"/>
<feBlend mode="normal" in2="effect1_innerShadow_530_10420" result="effect2_innerShadow_530_10420"/>
</filter>
<linearGradient id="paint0_linear_530_10420" x1="52.9999" y1="0" x2="52.9999" y2="146.087" gradientUnits="userSpaceOnUse">
<stop stop-color="#ECF7FE"/>
<stop offset="1" stop-color="white"/>
</linearGradient>
<linearGradient id="paint1_linear_530_10420" x1="68.9883" y1="72.6702" x2="16.2942" y2="62.3681" gradientUnits="userSpaceOnUse">
<stop stop-color="#F6AE94"/>
<stop offset="1" stop-color="#A85A3D"/>
</linearGradient>
<clipPath id="clip0_530_10420">
<path d="M-6.10352e-05 37.882C-6.10352e-05 20.0243 -6.10352e-05 11.0954 5.54763 5.5477C11.0953 0 20.0242 0 37.882 0H68.1179C85.9757 0 94.9045 0 100.452 5.5477C106 11.0954 106 20.0243 106 37.882V68.118C106 85.9757 106 94.9046 100.452 100.452C94.9045 106 85.9757 106 68.1179 106H37.882C20.0242 106 11.0953 106 5.54763 100.452C-6.10352e-05 94.9046 -6.10352e-05 85.9757 -6.10352e-05 68.118V37.882Z" fill="white"/>
</clipPath>
<clipPath id="clip1_530_10420">
<rect width="131.918" height="131.918" fill="white" transform="translate(-13 15.4678)"/>
</clipPath>
</defs>
</svg>
