<svg width="106" height="106" viewBox="0 0 106 106" fill="none" xmlns="http://www.w3.org/2000/svg">
<g clip-path="url(#clip0_530_10481)">
<path d="M-6.10352e-05 37.882C-6.10352e-05 20.0243 -6.10352e-05 11.0954 5.54763 5.5477C11.0953 0 20.0242 0 37.882 0H68.1179C85.9757 0 94.9045 0 100.452 5.5477C106 11.0954 106 20.0243 106 37.882V68.118C106 85.9757 106 94.9046 100.452 100.452C94.9045 106 85.9757 106 68.1179 106H37.882C20.0242 106 11.0953 106 5.54763 100.452C-6.10352e-05 94.9046 -6.10352e-05 85.9757 -6.10352e-05 68.118V37.882Z" fill="url(#paint0_linear_530_10481)"/>
<g clip-path="url(#clip1_530_10481)">
<path d="M29.1562 41.2705V52.9724H85.9601V41.2705H29.1562Z" fill="#0C253D"/>
<path d="M24.3828 142.603H90.7349C99.1065 137.742 106.315 131.099 111.841 123.193C111.841 123.19 111.841 123.187 111.841 123.185C109.35 116.334 106.698 110.4 104.442 108.408C98.1172 102.824 71.0573 98.2965 70.3593 98.1807H44.7588C44.0608 98.2963 17.0008 102.824 10.6763 108.408C8.4205 110.4 5.76812 116.334 3.27728 123.185V123.193C8.80246 131.099 16.0113 137.742 24.3828 142.603Z" fill="#8AE1FF"/>
<path d="M24.3828 142.603C27.8023 144.588 31.4155 146.276 35.1878 147.631V100.692C35.1878 98.9554 33.5741 97.6699 31.8817 98.0592C30.2264 98.4398 28.5106 98.856 26.798 99.3031C25.3736 99.6748 24.383 100.967 24.383 102.439L24.3828 142.603Z" fill="#566C8A"/>
<path d="M79.9296 147.631C83.702 146.276 87.3152 144.588 90.7347 142.602V102.439C90.7347 100.967 89.7439 99.6748 88.3198 99.3031C86.6072 98.856 84.8911 98.4398 83.236 98.0592C81.5436 97.6699 79.9299 98.9557 79.9299 100.692V147.631H79.9296Z" fill="#566C8A"/>
<path d="M44.8357 65.5432V98.1813C44.8357 103.143 50.5329 107.165 57.5611 107.165C64.5893 107.165 70.2865 103.143 70.2865 98.1813V65.5432H44.8357Z" fill="#CE846A"/>
<path d="M37.2821 56.3095C37.2821 56.3095 34.4769 49.4793 29.4763 51.065C24.4757 52.6506 29.5973 67.452 39.3556 68.3844L37.2821 56.3095Z" fill="#D6876A"/>
<path d="M77.8391 56.3095C77.8391 56.3095 80.6443 49.4793 85.6449 51.065C90.6455 52.6506 85.5239 67.452 75.7656 68.3844L77.8391 56.3095Z" fill="#E9A086"/>
<path d="M81.2191 52.8483C81.2191 70.2728 70.625 90.7079 57.5568 90.7079C44.4886 90.7079 33.8945 70.2725 33.8945 52.8483C33.8945 35.424 44.4883 22.8955 57.5568 22.8955C70.6253 22.8955 81.2191 35.424 81.2191 52.8483Z" fill="url(#paint1_linear_530_10481)"/>
<path d="M70.3588 94.1367L57.5585 107.163C57.5585 107.163 62.5094 116.116 65.7131 116.116C67.6132 116.116 70.3339 110.07 72.2332 105.15C73.6762 101.412 72.9609 97.1846 70.3588 94.1367Z" fill="#B8F0FF"/>
<path d="M44.7568 94.1367L57.5571 107.163C57.5571 107.163 52.6062 116.116 49.4025 116.116C47.5024 116.116 44.7817 110.07 42.8824 105.15C41.4394 101.412 42.1547 97.1846 44.7568 94.1367Z" fill="#B8F0FF"/>
<path d="M53.7814 65.1895L56.0602 61.5587C56.7542 60.4531 58.3652 60.4531 59.0591 61.5587L61.3379 65.1895C62.0778 66.3686 61.2304 67.901 59.8385 67.901H55.2812C53.8889 67.9008 53.0415 66.3683 53.7814 65.1895Z" fill="#C3785C"/>
<path d="M51.9879 78.271H63.126C64.2365 77.2926 65.0866 76.0265 65.5599 74.5889C65.9878 73.2893 65.001 71.9541 63.6328 71.9541H51.4811C50.1129 71.9541 49.1262 73.2893 49.554 74.5889C50.0273 76.0265 50.8774 77.2926 51.9879 78.271Z" fill="#8D3E5B"/>
<path d="M63.1259 78.2715C61.6421 79.5813 59.6915 80.3779 57.557 80.3779C55.4224 80.3779 53.4716 79.5816 51.988 78.2715C53.4737 76.9616 55.4224 76.165 57.557 76.165C59.6915 76.165 61.6402 76.9616 63.1259 78.2715Z" fill="#FF4155"/>
<path d="M72.4172 56.9892C72.4288 56.0451 72.0468 55.0973 71.2713 54.4125C70.0084 53.2974 68.073 53.2974 66.8101 54.4125C66.0346 55.0973 65.6529 56.0451 65.6642 56.9892C65.6791 58.2151 67.1848 58.8034 68.0516 57.9366C68.5978 57.3904 69.4833 57.3904 70.0295 57.9366C70.8966 58.8037 72.4023 58.2153 72.4172 56.9892Z" fill="#2D2D59"/>
<path d="M42.7033 56.9892C42.6917 56.0451 43.0737 55.0973 43.8492 54.4125C45.112 53.2974 47.0475 53.2974 48.3103 54.4125C49.0859 55.0973 49.4676 56.0451 49.4562 56.9892C49.4414 58.2151 47.9357 58.8034 47.0688 57.9366C46.5226 57.3904 45.6372 57.3904 45.091 57.9366C44.2239 58.8037 42.7182 58.2153 42.7033 56.9892Z" fill="#2D2D59"/>
<path d="M29.3749 43.9729C29.3749 28.4079 41.9928 15.79 57.5578 15.79C73.1228 15.79 85.7407 28.4079 85.7407 43.9729H29.3749Z" fill="#FFC839"/>
<path d="M33.2265 43.9729H81.8839C67.7687 35.9156 67.8903 23.1664 68.6002 18.0375C65.2082 16.5912 61.4753 15.79 57.5552 15.79C53.6351 15.79 49.902 16.5912 46.5103 18.0375C47.2204 23.1667 47.342 35.9159 33.2265 43.9729Z" fill="#FFB332"/>
<path d="M45.5117 43.972H69.6097V40.3944C64.6756 35.4519 62.8157 28.2193 64.7542 21.5099L65.9794 17.2681C66.4125 15.7691 65.4921 14.2043 63.9662 13.8788C61.8997 13.4374 59.7568 13.2051 57.5607 13.2051C55.3645 13.2051 53.2216 13.4374 51.1552 13.8785C49.6292 14.2043 48.7089 15.7689 49.1419 17.2678L50.3672 21.5096C52.3053 28.219 50.4458 35.4519 45.5117 40.3942V43.972Z" fill="#FFC839"/>
<path d="M85.7402 47.5477H29.3744C27.3984 47.5477 25.7968 45.9458 25.7968 43.9701C25.7968 41.9942 27.3987 40.3926 29.3744 40.3926H85.7402C87.7161 40.3926 89.3177 41.9944 89.3177 43.9701C89.3177 45.9458 87.7161 47.5477 85.7402 47.5477Z" fill="#FFDD40"/>
</g>
</g>
<defs>
<linearGradient id="paint0_linear_530_10481" x1="52.9999" y1="0" x2="52.9999" y2="146.087" gradientUnits="userSpaceOnUse">
<stop stop-color="#ECF7FE"/>
<stop offset="1" stop-color="white"/>
</linearGradient>
<linearGradient id="paint1_linear_530_10481" x1="82.8128" y1="71.0009" x2="-29.6258" y2="81.06" gradientUnits="userSpaceOnUse">
<stop stop-color="#EAA288"/>
<stop offset="0.545" stop-color="#CE7C5E"/>
<stop offset="0.596387" stop-color="#683F2F"/>
</linearGradient>
<clipPath id="clip0_530_10481">
<path d="M-6.10352e-05 37.882C-6.10352e-05 20.0243 -6.10352e-05 11.0954 5.54763 5.5477C11.0953 0 20.0242 0 37.882 0H68.1179C85.9757 0 94.9045 0 100.452 5.5477C106 11.0954 106 20.0243 106 37.882V68.118C106 85.9757 106 94.9046 100.452 100.452C94.9045 106 85.9757 106 68.1179 106H37.882C20.0242 106 11.0953 106 5.54763 100.452C-6.10352e-05 94.9046 -6.10352e-05 85.9757 -6.10352e-05 68.118V37.882Z" fill="white"/>
</clipPath>
<clipPath id="clip1_530_10481">
<rect width="138.305" height="138.305" fill="white" transform="translate(-11.5938 13.2061)"/>
</clipPath>
</defs>
</svg>
