<svg width="106" height="106" viewBox="0 0 106 106" fill="none" xmlns="http://www.w3.org/2000/svg">
<g clip-path="url(#clip0_530_10550)">
<path d="M-6.10352e-05 37.882C-6.10352e-05 20.0243 -6.10352e-05 11.0954 5.54763 5.5477C11.0953 0 20.0242 0 37.882 0H68.1179C85.9757 0 94.9045 0 100.452 5.5477C106 11.0954 106 20.0243 106 37.882V68.118C106 85.9757 106 94.9046 100.452 100.452C94.9045 106 85.9757 106 68.1179 106H37.882C20.0242 106 11.0953 106 5.54763 100.452C-6.10352e-05 94.9046 -6.10352e-05 85.9757 -6.10352e-05 68.118V37.882Z" fill="url(#paint0_linear_530_10550)"/>
<path d="M120.87 63.25C133.79 63.25 144.264 75.3228 144.264 90.2148C144.263 105.107 133.79 117.179 120.87 117.179C120.188 117.179 119.512 117.143 118.845 117.077C115.196 126.493 107.001 133.056 97.4755 133.056C91.6914 133.056 86.3986 130.635 82.3154 126.626C79.7456 129.733 76.1209 131.671 72.1025 131.671C65.714 131.671 60.3176 126.777 58.58 120.064C56.9083 120.869 55.0741 121.314 53.1494 121.314C51.6925 121.314 50.2869 121.059 48.9648 120.587C47.0882 127.029 41.8082 131.671 35.5869 131.671C30.9499 131.671 26.8347 129.093 24.2626 125.112C20.0262 130.018 14.1624 133.056 7.68256 133.056C-2.90778 133.056 -11.8534 124.944 -14.7354 113.817C-18.0892 115.958 -21.9465 117.179 -26.0518 117.179C-38.9716 117.179 -49.4452 105.107 -49.4454 90.2148C-49.4454 75.3229 -38.9717 63.2501 -26.0518 63.25C-15.4616 63.25 -6.51704 71.3617 -3.63483 82.4883C-0.280888 80.3471 3.577 79.127 7.68256 79.127C18.8544 79.127 28.1957 88.1538 30.5195 100.225C32.0922 99.5268 33.8008 99.1436 35.5869 99.1436C37.0431 99.1436 38.4479 99.3979 39.7695 99.8701C41.6463 93.4279 46.928 88.7871 53.1494 88.7871C59.5373 88.7873 64.932 93.6808 66.6699 100.393C68.3419 99.5879 70.1774 99.1436 72.1025 99.1436C73.0247 99.1436 73.9259 99.2467 74.7988 99.4414C77.3681 87.7653 86.5466 79.1271 97.4755 79.127C98.1575 79.127 98.8327 79.1626 99.4999 79.2285C103.149 69.8123 111.345 63.2501 120.87 63.25Z" fill="#D3DCFB"/>
<rect x="48.3671" y="72.2705" width="9.05432" height="37.4419" fill="#D3DCFB"/>
<rect x="50.0038" y="79.8916" width="5.78034" height="29.8193" fill="#E9EFFF"/>
<g clip-path="url(#clip1_530_10550)">
<path d="M51.3218 66.5493L51.3218 48.396C51.3218 44.4431 55.4038 41.0459 61.2449 39.5584C67.0861 41.0459 71.1681 44.4431 71.1681 48.396L71.1681 64.8911C71.1681 65.8069 70.4256 66.5493 69.5098 66.5493L51.3218 66.5493Z" fill="#566C8A"/>
<path d="M36.5451 66.5516C35.6293 66.5516 34.8869 65.8092 34.8869 64.8934L34.8869 48.3983C34.8869 44.4454 38.9689 41.0482 44.81 39.5607C50.6512 41.0482 54.7331 44.4454 54.7331 48.3983L54.7331 66.5519L36.5451 66.5516Z" fill="#566C8A"/>
<g opacity="0.3" filter="url(#filter0_f_530_10550)">
<rect x="41.5273" y="40.9316" width="23.0011" height="25.6945" fill="#3E7B24"/>
</g>
<path d="M57.2722 65.0372L57.2722 81.0549C57.2722 84.5427 55.5227 87.5402 53.0193 88.8528C50.516 87.5402 48.7665 84.5427 48.7665 81.0549L48.7665 65.0372L57.2722 65.0372Z" fill="#2774BE"/>
<path d="M57.2722 59.1456L57.2722 75.1633C57.2722 78.6511 55.5227 81.6486 53.0193 82.9612C50.516 81.6486 48.7665 78.6511 48.7665 75.1633L48.7665 59.1456L57.2722 59.1456Z" fill="#378CC3"/>
<path d="M56.7734 56.8811L56.7734 71.0168C56.7734 74.0949 55.2295 76.7401 53.0203 77.8984C50.811 76.7401 49.2672 74.0948 49.2672 71.0168L49.2672 56.8813L56.7734 56.8811Z" fill="#C9F0FF"/>
<path d="M60.9731 69.9424C60.973 71.2576 59.9068 72.3238 58.5915 72.3239L47.4775 72.3239C46.1621 72.3239 45.0959 71.2577 45.0959 69.9424C45.0959 68.627 46.1621 67.5608 47.4775 67.5608L58.5913 67.5608C59.9068 67.5607 60.9731 68.627 60.9731 69.9424Z" fill="#566C8A"/>
<g filter="url(#filter1_i_530_10550)">
<path d="M56.7362 16.2702C60.5222 19.9072 62.9469 25.4998 62.9469 31.772L62.9468 66.4459C62.9468 67.9376 61.7376 69.1469 60.246 69.1468H52.5902C52.5478 69.1468 52.5057 69.1458 52.4639 69.1438H45.8024C44.3107 69.1438 43.1016 67.9347 43.1016 66.443L43.1016 31.7692C43.1014 23.6309 47.1835 16.6367 53.0247 13.5742C54.3644 14.2766 55.6115 15.1859 56.7382 16.2683L56.7362 16.2702Z" fill="white"/>
</g>
<g filter="url(#filter2_i_530_10550)">
<path d="M54.1234 13.7207L54.1235 11.4667C54.1234 10.786 53.5992 10.1924 52.9191 10.1715C52.2148 10.15 51.6365 10.7147 51.6363 11.4146L51.6362 13.9174C49.5666 15.4182 47.7686 17.6624 46.3633 19.9262L53.1493 19.9262L53.1611 19.9201L53.1587 19.924L59.6853 19.924C58.7384 18.3983 57.6131 16.8816 56.3464 15.5954L56.3404 15.6014C55.6423 14.8922 54.9013 14.2528 54.1234 13.7207Z" fill="#566C8A"/>
</g>
<circle cx="53.0334" cy="35.8683" r="4.41618" fill="#378CC3"/>
</g>
<path d="M116.266 86.9268C126.479 86.9268 134.759 95.206 134.759 105.419C134.759 115.632 126.479 123.912 116.266 123.912C115.727 123.912 115.193 123.887 114.666 123.842C111.782 130.3 105.304 134.803 97.7734 134.803C93.2003 134.803 89.016 133.141 85.788 130.391C83.7566 132.521 80.8922 133.852 77.7158 133.852C72.6653 133.851 68.4002 130.494 67.0273 125.89C65.705 126.442 64.254 126.749 62.7314 126.749C61.58 126.749 60.4696 126.574 59.4247 126.25C57.9409 130.668 53.7701 133.852 48.8525 133.852C45.1856 133.851 41.9323 132.081 39.8994 129.35C36.5501 132.717 31.9134 134.803 26.789 134.803C18.4172 134.803 11.3452 129.239 9.06732 121.607C6.41692 123.075 3.36884 123.912 0.124939 123.912C-10.088 123.912 -18.3672 115.632 -18.3672 105.419C-18.3671 95.2061 -10.0879 86.9269 0.124939 86.9268C8.49656 86.9268 15.5674 92.4902 17.8456 100.121C20.4962 98.6536 23.5448 97.8174 26.789 97.8174C35.6211 97.8174 43.0058 104.009 44.8417 112.289C46.0866 111.809 47.4384 111.544 48.8525 111.544C50.0035 111.544 51.1145 111.717 52.1591 112.041C53.6433 107.624 57.8145 104.442 62.7314 104.441C67.7819 104.441 72.0458 107.799 73.4189 112.403C74.7415 111.851 76.1927 111.544 77.7158 111.544C78.4448 111.544 79.1576 111.615 79.8476 111.749C81.8787 103.742 89.1343 97.8175 97.7734 97.8174C98.3119 97.8174 98.8452 97.8416 99.372 97.8867C102.256 91.4281 108.735 86.9269 116.266 86.9268Z" fill="#E9EFFF"/>
</g>
<defs>
<filter id="filter0_f_530_10550" x="39.1597" y="38.564" width="27.7364" height="30.4298" filterUnits="userSpaceOnUse" color-interpolation-filters="sRGB">
<feFlood flood-opacity="0" result="BackgroundImageFix"/>
<feBlend mode="normal" in="SourceGraphic" in2="BackgroundImageFix" result="shape"/>
<feGaussianBlur stdDeviation="1.18381" result="effect1_foregroundBlur_530_10550"/>
</filter>
<filter id="filter1_i_530_10550" x="43.1016" y="11.2066" width="22.213" height="57.9401" filterUnits="userSpaceOnUse" color-interpolation-filters="sRGB">
<feFlood flood-opacity="0" result="BackgroundImageFix"/>
<feBlend mode="normal" in="SourceGraphic" in2="BackgroundImageFix" result="shape"/>
<feColorMatrix in="SourceAlpha" type="matrix" values="0 0 0 0 0 0 0 0 0 0 0 0 0 0 0 0 0 0 127 0" result="hardAlpha"/>
<feOffset dx="2.36763" dy="-2.36763"/>
<feGaussianBlur stdDeviation="1.18381"/>
<feComposite in2="hardAlpha" operator="arithmetic" k2="-1" k3="1"/>
<feColorMatrix type="matrix" values="0 0 0 0 0.788235 0 0 0 0 0.941176 0 0 0 0 1 0 0 0 1 0"/>
<feBlend mode="normal" in2="shape" result="effect1_innerShadow_530_10550"/>
</filter>
<filter id="filter2_i_530_10550" x="46.3633" y="10.1709" width="15.6896" height="9.75537" filterUnits="userSpaceOnUse" color-interpolation-filters="sRGB">
<feFlood flood-opacity="0" result="BackgroundImageFix"/>
<feBlend mode="normal" in="SourceGraphic" in2="BackgroundImageFix" result="shape"/>
<feColorMatrix in="SourceAlpha" type="matrix" values="0 0 0 0 0 0 0 0 0 0 0 0 0 0 0 0 0 0 127 0" result="hardAlpha"/>
<feOffset dx="2.36763"/>
<feGaussianBlur stdDeviation="1.18381"/>
<feComposite in2="hardAlpha" operator="arithmetic" k2="-1" k3="1"/>
<feColorMatrix type="matrix" values="0 0 0 0 0 0 0 0 0 0 0 0 0 0 0 0 0 0 0.13 0"/>
<feBlend mode="normal" in2="shape" result="effect1_innerShadow_530_10550"/>
</filter>
<linearGradient id="paint0_linear_530_10550" x1="52.9999" y1="0" x2="52.9999" y2="68.3336" gradientUnits="userSpaceOnUse">
<stop stop-color="#ECF7FE"/>
<stop offset="1" stop-color="white"/>
</linearGradient>
<clipPath id="clip0_530_10550">
<path d="M-6.10352e-05 37.882C-6.10352e-05 20.0243 -6.10352e-05 11.0954 5.54763 5.5477C11.0953 0 20.0242 0 37.882 0H68.1179C85.9757 0 94.9045 0 100.452 5.5477C106 11.0954 106 20.0243 106 37.882V68.118C106 85.9757 106 94.9046 100.452 100.452C94.9045 106 85.9757 106 68.1179 106H37.882C20.0242 106 11.0953 106 5.54763 100.452C-6.10352e-05 94.9046 -6.10352e-05 85.9757 -6.10352e-05 68.118V37.882Z" fill="white"/>
</clipPath>
<clipPath id="clip1_530_10550">
<rect width="84.9014" height="84.9014" fill="white" transform="translate(-7 29.2549) rotate(-45)"/>
</clipPath>
</defs>
</svg>
